HIERARCHY
ROOT Pelvis
{
	OFFSET 0.000000 0.000000 0.000000
	CHANNELS 6 Xposition Yposition Zposition Xrotation Yrotation Zrotation
	JOINT LeftUpLeg_virtual
	{
		OFFSET 0.000000 0.000000 0.000000
		CHANNELS 3 Xrotation Yrotation Zrotation
		JOINT LeftUpLeg
		{
			OFFSET 18.735201 -5.666702 -4.541200
			CHANNELS 3 Xrotation Yrotation Zrotation
			JOINT LeftLeg
			{
				OFFSET -0.021200 -31.938179 0.493100
				CHANNELS 3 Xrotation Yrotation Zrotation
				JOINT LeftFoot
				{
					OFFSET 0.021200 -31.938179 -4.336299
					CHANNELS 3 Xrotation Yrotation Zrotation
					JOINT LeftToeBase
					{
						OFFSET 0.943001 -26.722000 15.023500
						CHANNELS 3 Xrotation Yrotation Zrotation
						End Site
						{
							OFFSET 0 0 0
						}
					}
				}
			}
		}
	}
	JOINT RightUpLeg_virtual
	{
		OFFSET 0.000000 0.000000 0.000000
		CHANNELS 3 Xrotation Yrotation Zrotation
		JOINT RightUpLeg
		{
			OFFSET -18.735201 -5.666702 -4.541200
			CHANNELS 3 Xrotation Yrotation Zrotation
			JOINT RightLeg
			{
				OFFSET 0.018946 -31.938133 0.493100
				CHANNELS 3 Xrotation Yrotation Zrotation
				JOINT RightFoot
				{
					OFFSET -0.018946 -31.938126 -4.336299
					CHANNELS 3 Xrotation Yrotation Zrotation
					JOINT RightToeBase
					{
						OFFSET -0.943001 -26.722004 15.023500
						CHANNELS 3 Xrotation Yrotation Zrotation
						End Site
						{
							OFFSET 0 0 0
						}
					}
				}
			}
		}
	}
	JOINT Hips_virtual
	{
		OFFSET 0.000000 0.000000 0.000000
		CHANNELS 3 Xrotation Yrotation Zrotation
		JOINT Hips
		{
			OFFSET -0.000000 -0.000000 -0.000000
			CHANNELS 3 Xrotation Yrotation Zrotation
			JOINT Spine
			{
				OFFSET 0.000000 10.199997 -0.299500
				CHANNELS 3 Xrotation Yrotation Zrotation
				JOINT Spine1
				{
					OFFSET 0.000000 11.900002 -1.516600
					CHANNELS 3 Xrotation Yrotation Zrotation
					JOINT Spine2
					{
						OFFSET 0.000000 13.600006 -2.842500
						CHANNELS 3 Xrotation Yrotation Zrotation
						JOINT Neck_virtual
						{
							OFFSET 0.000000 0.000000 0.000000
							CHANNELS 3 Xrotation Yrotation Zrotation
							JOINT Neck
							{
								OFFSET 0.000000 9.624100 -2.890100
								CHANNELS 3 Xrotation Yrotation Zrotation
								JOINT Head
								{
									OFFSET 0.000000 14.068802 -1.351900
									CHANNELS 3 Xrotation Yrotation Zrotation
									End Site
									{
										OFFSET 0 0 0
									}
								}
							}
						}
						JOINT LeftShoulder_virtual
						{
							OFFSET 0.000000 0.000000 0.000000
							CHANNELS 3 Xrotation Yrotation Zrotation
							JOINT LeftShoulder
							{
								OFFSET 15.263000 10.923401 -0.547700
								CHANNELS 3 Xrotation Yrotation Zrotation
								JOINT LeftArm
								{
									OFFSET 25.438599 -2.830597 -13.032500
									CHANNELS 3 Xrotation Yrotation Zrotation
									JOINT LeftForeArm
									{
										OFFSET 29.960503 0.000000 0.000000
										CHANNELS 3 Xrotation Yrotation Zrotation
										JOINT LeftHand
										{
											OFFSET 27.849251 0.000000 0.000000
											CHANNELS 3 Xrotation Yrotation Zrotation
											End Site
											{
												OFFSET 0 0 0
											}
										}
									}
								}
							}
						}
						JOINT RightShoulder_virtual
						{
							OFFSET 0.000000 0.000000 0.000000
							CHANNELS 3 Xrotation Yrotation Zrotation
							JOINT RightShoulder
							{
								OFFSET -15.263000 10.923401 -0.547700
								CHANNELS 3 Xrotation Yrotation Zrotation
								JOINT RightArm
								{
									OFFSET -25.438599 -2.830597 -13.032500
									CHANNELS 3 Xrotation Yrotation Zrotation
									JOINT RightForeArm
									{
										OFFSET -29.960503 0.000000 0.000000
										CHANNELS 3 Xrotation Yrotation Zrotation
										JOINT RightHand
										{
											OFFSET -27.849251 0.000000 0.000000
											CHANNELS 3 Xrotation Yrotation Zrotation
											End Site
											{
												OFFSET 0 0 0
											}
										}
									}
								}
							}
						}
					}
				}
			}
		}
	}
}
MOTION
Frames: 4
Frame Time: 0.03333333
-1.097424 93.272430 2.210293 0.000000 0.000000 0.000000 10.585400 -4.115604 -6.772238 -27.174365 12.898836 8.967804 29.013076 1.849471 2.390806 -17.219452 0.827191 -0.177100 0.000000 0.000000 0.000000 5.097422 -4.886474 -0.152247 -23.971514 -5.998474 -15.654534 33.466086 -2.647763 1.069038 -15.176619 -7.130017 11.260066 0.000000 0.000000 0.000000 -1.983865 -2.059232 0.875636 -7.549497 -1.750679 5.804362 9.544576 1.405761 -4.003165 4.373308 1.510569 -2.610847 0.000000 0.000000 0.000000 4.088233 1.037767 -2.760075 -0.448197 0.115154 -1.234606 0.000000 0.000000 0.000000 6.959285 0.740225 -2.274754 3.529170 -9.636420 -13.427705 11.554366 -8.254136 -56.053863 7.663697 -36.126233 -2.834089 0.000000 0.000000 0.000000 7.339202 2.327418 -0.967785 4.594302 10.266690 4.823649 21.364570 5.520678 54.664647 9.918855 32.372313 4.777228 0.000000 0.000000 0.000000 
-1.080308 93.361755 2.217286 0.000000 0.000000 0.000000 10.559563 -4.150786 -6.761491 -27.184621 12.880356 8.969464 29.061967 1.884729 2.422934 -17.173092 0.846775 -0.110490 0.000000 0.000000 0.000000 5.056726 -4.800237 -0.177053 -24.018331 -5.961722 -15.665193 33.718793 -2.641354 1.164014 -14.977478 -7.155589 11.420266 0.000000 0.000000 0.000000 -1.963914 -2.042564 0.889856 -7.540940 -1.576350 5.792812 9.589109 1.343766 -4.004037 4.425184 1.484651 -2.620210 0.000000 0.000000 0.000000 4.127074 1.022059 -2.790206 -0.453433 0.103671 -1.252261 0.000000 0.000000 0.000000 7.056008 0.703122 -2.221220 3.573371 -9.871713 -13.216153 11.375653 -8.348585 -55.590899 7.686446 -36.535679 -2.529208 0.000000 0.000000 0.000000 7.439258 2.370520 -0.990857 4.657593 10.231487 4.887726 21.892481 5.798653 54.439814 10.230223 32.639992 4.543783 0.000000 0.000000 0.000000 
-1.050831 93.538063 2.233433 0.000000 0.000000 0.000000 10.499760 -4.231633 -6.742952 -27.213591 12.840014 8.967827 29.176659 1.945479 2.476114 -17.069191 0.881278 0.000638 0.000000 0.000000 0.000000 4.969955 -4.626172 -0.225534 -24.120688 -5.887053 -15.685717 34.211943 -2.620210 1.341744 -14.589620 -7.192535 11.726518 0.000000 0.000000 0.000000 -1.921720 -2.020301 0.920773 -7.549328 -1.232187 5.762910 9.684074 1.233661 -4.000451 4.532214 1.433475 -2.637240 0.000000 0.000000 0.000000 4.200434 0.991684 -2.845025 -0.462534 0.080277 -1.284820 0.000000 0.000000 0.000000 7.243794 0.634824 -2.116640 3.662944 -10.299546 -12.799856 11.032686 -8.549097 -54.662984 7.738117 -37.368621 -1.926307 0.000000 0.000000 0.000000 7.633537 2.449606 -1.029873 4.772176 10.160960 5.016505 22.869065 6.327648 53.953198 10.830190 33.179857 4.064664 0.000000 0.000000 0.000000 
-1.018203 93.796394 2.263262 0.000000 0.000000 0.000000 10.396456 -4.369675 -6.720516 -27.271794 12.774037 8.956816 29.380045 2.014851 2.532137 -16.893416 0.922326 0.119418 0.000000 0.000000 0.000000 4.828265 -4.359025 -0.295980 -24.291945 -5.771834 -15.714501 34.928262 -2.570987 1.580163 -14.027686 -7.216611 12.152344 0.000000 0.000000 0.000000 -1.854505 -2.004214 0.971716 -7.617735 -0.731457 5.705245 9.840328 1.098144 -3.983392 4.698006 1.358879 -2.658166 0.000000 0.000000 0.000000 4.301183 0.949367 -2.915028 -0.473242 0.045146 -1.327353 0.000000 0.000000 0.000000 7.513145 0.545641 -1.966044 3.798983 -10.848622 -12.196735 10.549461 -8.871380 -53.269882 7.832593 -38.636963 -1.035930 0.000000 0.000000 0.000000 7.912649 2.553088 -1.072974 4.919583 10.056383 5.211239 24.159074 7.059381 53.143680 11.677025 33.999456 3.318291 0.000000 0.000000 0.000000 
